<svg id="visual" viewBox="0 0 1920 1080" width="1920" height="1080" xmlns="http://www.w3.org/2000/svg" xmlns:xlink="http://www.w3.org/1999/xlink" version="1.1"><rect x="0" y="0" width="1920" height="1080" fill="#008694"></rect><defs><linearGradient id="grad1_0" x1="43.8%" y1="0%" x2="100%" y2="100%"><stop offset="14.444444444444446%" stop-color="#000a0b" stop-opacity="1"></stop><stop offset="85.55555555555554%" stop-color="#000a0b" stop-opacity="1"></stop></linearGradient></defs><defs><linearGradient id="grad1_1" x1="43.8%" y1="0%" x2="100%" y2="100%"><stop offset="14.444444444444446%" stop-color="#000a0b" stop-opacity="1"></stop><stop offset="85.55555555555554%" stop-color="#0f2225" stop-opacity="1"></stop></linearGradient></defs><defs><linearGradient id="grad1_2" x1="43.8%" y1="0%" x2="100%" y2="100%"><stop offset="14.444444444444446%" stop-color="#13393e" stop-opacity="1"></stop><stop offset="85.55555555555554%" stop-color="#0f2225" stop-opacity="1"></stop></linearGradient></defs><defs><linearGradient id="grad1_3" x1="43.8%" y1="0%" x2="100%" y2="100%"><stop offset="14.444444444444446%" stop-color="#13393e" stop-opacity="1"></stop><stop offset="85.55555555555554%" stop-color="#135259" stop-opacity="1"></stop></linearGradient></defs><defs><linearGradient id="grad1_4" x1="43.8%" y1="0%" x2="100%" y2="100%"><stop offset="14.444444444444446%" stop-color="#0f6b76" stop-opacity="1"></stop><stop offset="85.55555555555554%" stop-color="#135259" stop-opacity="1"></stop></linearGradient></defs><defs><linearGradient id="grad1_5" x1="43.8%" y1="0%" x2="100%" y2="100%"><stop offset="14.444444444444446%" stop-color="#0f6b76" stop-opacity="1"></stop><stop offset="85.55555555555554%" stop-color="#008694" stop-opacity="1"></stop></linearGradient></defs><defs><linearGradient id="grad2_0" x1="0%" y1="0%" x2="56.3%" y2="100%"><stop offset="14.444444444444446%" stop-color="#000a0b" stop-opacity="1"></stop><stop offset="85.55555555555554%" stop-color="#000a0b" stop-opacity="1"></stop></linearGradient></defs><defs><linearGradient id="grad2_1" x1="0%" y1="0%" x2="56.3%" y2="100%"><stop offset="14.444444444444446%" stop-color="#0f2225" stop-opacity="1"></stop><stop offset="85.55555555555554%" stop-color="#000a0b" stop-opacity="1"></stop></linearGradient></defs><defs><linearGradient id="grad2_2" x1="0%" y1="0%" x2="56.3%" y2="100%"><stop offset="14.444444444444446%" stop-color="#0f2225" stop-opacity="1"></stop><stop offset="85.55555555555554%" stop-color="#13393e" stop-opacity="1"></stop></linearGradient></defs><defs><linearGradient id="grad2_3" x1="0%" y1="0%" x2="56.3%" y2="100%"><stop offset="14.444444444444446%" stop-color="#135259" stop-opacity="1"></stop><stop offset="85.55555555555554%" stop-color="#13393e" stop-opacity="1"></stop></linearGradient></defs><defs><linearGradient id="grad2_4" x1="0%" y1="0%" x2="56.3%" y2="100%"><stop offset="14.444444444444446%" stop-color="#135259" stop-opacity="1"></stop><stop offset="85.55555555555554%" stop-color="#0f6b76" stop-opacity="1"></stop></linearGradient></defs><defs><linearGradient id="grad2_5" x1="0%" y1="0%" x2="56.3%" y2="100%"><stop offset="14.444444444444446%" stop-color="#008694" stop-opacity="1"></stop><stop offset="85.55555555555554%" stop-color="#0f6b76" stop-opacity="1"></stop></linearGradient></defs><g transform="translate(1920, 0)"><path d="M0 914C-80.8 1009 -161.5 1103.9 -210.7 1059.2C-259.9 1014.5 -277.4 830.2 -305.8 738.2C-334.1 646.2 -373.3 646.6 -426.7 638.6C-480.1 630.6 -547.8 614.3 -571.3 571.3C-594.9 528.4 -574.3 458.9 -653.5 436.7C-732.8 414.4 -912 439.3 -970.1 401.8C-1028.2 364.3 -965.3 264.3 -939.6 186.9C-913.9 109.5 -925.5 54.8 -937 0L0 0Z" fill="#0a7885"></path><path d="M0 761.7C-67.3 840.8 -134.6 920 -175.6 882.7C-216.5 845.5 -231.2 691.8 -254.8 615.1C-278.4 538.5 -311 538.8 -355.6 532.1C-400.1 525.5 -456.5 511.9 -476.1 476.1C-495.7 440.4 -478.6 382.5 -544.6 363.9C-610.7 345.3 -760 366.1 -808.4 334.8C-856.8 303.6 -804.4 220.2 -783 155.7C-761.6 91.3 -771.2 45.6 -780.8 0L0 0Z" fill="#125e67"></path><path d="M0 609.3C-53.8 672.6 -107.7 736 -140.5 706.2C-173.2 676.4 -184.9 553.5 -203.8 492.1C-222.7 430.8 -248.8 431 -284.5 425.7C-320.1 420.4 -365.2 409.5 -380.9 380.9C-396.6 352.3 -382.8 306 -435.7 291.1C-488.5 276.3 -608 292.9 -646.7 267.9C-685.5 242.9 -643.5 176.2 -626.4 124.6C-609.3 73 -617 36.5 -624.7 0L0 0Z" fill="#14454b"></path><path d="M0 457C-40.4 504.5 -80.8 552 -105.3 529.6C-129.9 507.3 -138.7 415.1 -152.9 369.1C-167.1 323.1 -186.6 323.3 -213.3 319.3C-240 315.3 -273.9 307.1 -285.7 285.7C-297.4 264.2 -287.1 229.5 -326.8 218.3C-366.4 207.2 -456 219.7 -485 200.9C-514.1 182.1 -482.6 132.1 -469.8 93.4C-457 54.8 -462.7 27.4 -468.5 0L0 0Z" fill="#112e31"></path><path d="M0 304.7C-26.9 336.3 -53.8 368 -70.2 353.1C-86.6 338.2 -92.5 276.7 -101.9 246.1C-111.4 215.4 -124.4 215.5 -142.2 212.9C-160 210.2 -182.6 204.8 -190.4 190.4C-198.3 176.1 -191.4 153 -217.8 145.6C-244.3 138.1 -304 146.4 -323.4 133.9C-342.7 121.4 -321.8 88.1 -313.2 62.3C-304.6 36.5 -308.5 18.3 -312.3 0L0 0Z" fill="#0a1819"></path><path d="M0 152.3C-13.5 168.2 -26.9 184 -35.1 176.5C-43.3 169.1 -46.2 138.4 -51 123C-55.7 107.7 -62.2 107.8 -71.1 106.4C-80 105.1 -91.3 102.4 -95.2 95.2C-99.1 88.1 -95.7 76.5 -108.9 72.8C-122.1 69.1 -152 73.2 -161.7 67C-171.4 60.7 -160.9 44 -156.6 31.1C-152.3 18.3 -154.2 9.1 -156.2 0L0 0Z" fill="#000a0b"></path></g><g transform="translate(0, 1080)"><path d="M0 -1035C70.6 -1048.4 141.3 -1061.8 207 -1040.6C272.7 -1019.5 333.4 -963.8 369.7 -892.5C405.9 -821.2 417.6 -734.2 469.5 -702.6C521.3 -670.9 613.2 -694.5 683.1 -683.1C752.9 -671.6 800.7 -625.1 865.6 -578.3C930.4 -531.6 1012.2 -484.8 997.8 -413.3C983.4 -341.8 872.8 -245.8 869 -172.9C865.1 -99.9 968.1 -49.9 1071 0L0 0Z" fill="#0a7885"></path><path d="M0 -862.5C58.9 -873.7 117.7 -884.8 172.5 -867.2C227.2 -849.5 277.9 -803.1 308.1 -743.7C338.3 -684.3 348 -611.9 391.2 -585.5C434.4 -559.1 511 -578.8 569.2 -569.2C627.4 -559.7 667.3 -520.9 721.3 -482C775.3 -443 843.5 -404 831.5 -344.4C819.5 -284.9 727.3 -204.9 724.1 -144C721 -83.2 806.7 -41.6 892.5 0L0 0Z" fill="#125e67"></path><path d="M0 -690C47.1 -698.9 94.2 -707.8 138 -693.7C181.8 -679.6 222.3 -642.5 246.4 -595C270.6 -547.4 278.4 -489.5 313 -468.4C347.5 -447.3 408.8 -463 455.4 -455.4C502 -447.7 533.8 -416.7 577 -385.6C620.2 -354.4 674.8 -323.2 665.2 -275.5C655.6 -227.9 581.9 -163.9 579.3 -115.2C576.8 -66.6 645.4 -33.3 714 0L0 0Z" fill="#14454b"></path><path d="M0 -517.5C35.3 -524.2 70.6 -530.9 103.5 -520.3C136.3 -509.7 166.7 -481.9 184.8 -446.2C203 -410.6 208.8 -367.1 234.7 -351.3C260.6 -335.5 306.6 -347.3 341.5 -341.5C376.5 -335.8 400.4 -312.5 432.8 -289.2C465.2 -265.8 506.1 -242.4 498.9 -206.6C491.7 -170.9 436.4 -122.9 434.5 -86.4C432.6 -49.9 484 -25 535.5 0L0 0Z" fill="#112e31"></path><path d="M0 -345C23.5 -349.5 47.1 -353.9 69 -346.9C90.9 -339.8 111.1 -321.3 123.2 -297.5C135.3 -273.7 139.2 -244.7 156.5 -234.2C173.8 -223.6 204.4 -231.5 227.7 -227.7C251 -223.9 266.9 -208.4 288.5 -192.8C310.1 -177.2 337.4 -161.6 332.6 -137.8C327.8 -113.9 290.9 -81.9 289.7 -57.6C288.4 -33.3 322.7 -16.6 357 0L0 0Z" fill="#0a1819"></path><path d="M0 -172.5C11.8 -174.7 23.5 -177 34.5 -173.4C45.4 -169.9 55.6 -160.6 61.6 -148.7C67.7 -136.9 69.6 -122.4 78.2 -117.1C86.9 -111.8 102.2 -115.8 113.8 -113.8C125.5 -111.9 133.5 -104.2 144.3 -96.4C155.1 -88.6 168.7 -80.8 166.3 -68.9C163.9 -57 145.5 -41 144.8 -28.8C144.2 -16.6 161.3 -8.3 178.5 0L0 0Z" fill="#000a0b"></path></g></svg>