<svg id="visual" viewBox="0 0 540 960" width="540" height="960" xmlns="http://www.w3.org/2000/svg" xmlns:xlink="http://www.w3.org/1999/xlink" version="1.1"><rect x="0" y="0" width="540" height="960" fill="#008694"></rect><defs><linearGradient id="grad1_0" x1="0%" y1="0%" x2="100%" y2="100%"><stop offset="30%" stop-color="#000a0b" stop-opacity="1"></stop><stop offset="70%" stop-color="#000a0b" stop-opacity="1"></stop></linearGradient></defs><defs><linearGradient id="grad1_1" x1="0%" y1="0%" x2="100%" y2="100%"><stop offset="30%" stop-color="#000a0b" stop-opacity="1"></stop><stop offset="70%" stop-color="#0f2225" stop-opacity="1"></stop></linearGradient></defs><defs><linearGradient id="grad1_2" x1="0%" y1="0%" x2="100%" y2="100%"><stop offset="30%" stop-color="#13393e" stop-opacity="1"></stop><stop offset="70%" stop-color="#0f2225" stop-opacity="1"></stop></linearGradient></defs><defs><linearGradient id="grad1_3" x1="0%" y1="0%" x2="100%" y2="100%"><stop offset="30%" stop-color="#13393e" stop-opacity="1"></stop><stop offset="70%" stop-color="#135259" stop-opacity="1"></stop></linearGradient></defs><defs><linearGradient id="grad1_4" x1="0%" y1="0%" x2="100%" y2="100%"><stop offset="30%" stop-color="#0f6b76" stop-opacity="1"></stop><stop offset="70%" stop-color="#135259" stop-opacity="1"></stop></linearGradient></defs><defs><linearGradient id="grad1_5" x1="0%" y1="0%" x2="100%" y2="100%"><stop offset="30%" stop-color="#0f6b76" stop-opacity="1"></stop><stop offset="70%" stop-color="#008694" stop-opacity="1"></stop></linearGradient></defs><defs><linearGradient id="grad2_0" x1="0%" y1="0%" x2="100%" y2="100%"><stop offset="30%" stop-color="#000a0b" stop-opacity="1"></stop><stop offset="70%" stop-color="#000a0b" stop-opacity="1"></stop></linearGradient></defs><defs><linearGradient id="grad2_1" x1="0%" y1="0%" x2="100%" y2="100%"><stop offset="30%" stop-color="#0f2225" stop-opacity="1"></stop><stop offset="70%" stop-color="#000a0b" stop-opacity="1"></stop></linearGradient></defs><defs><linearGradient id="grad2_2" x1="0%" y1="0%" x2="100%" y2="100%"><stop offset="30%" stop-color="#0f2225" stop-opacity="1"></stop><stop offset="70%" stop-color="#13393e" stop-opacity="1"></stop></linearGradient></defs><defs><linearGradient id="grad2_3" x1="0%" y1="0%" x2="100%" y2="100%"><stop offset="30%" stop-color="#135259" stop-opacity="1"></stop><stop offset="70%" stop-color="#13393e" stop-opacity="1"></stop></linearGradient></defs><defs><linearGradient id="grad2_4" x1="0%" y1="0%" x2="100%" y2="100%"><stop offset="30%" stop-color="#135259" stop-opacity="1"></stop><stop offset="70%" stop-color="#0f6b76" stop-opacity="1"></stop></linearGradient></defs><defs><linearGradient id="grad2_5" x1="0%" y1="0%" x2="100%" y2="100%"><stop offset="30%" stop-color="#008694" stop-opacity="1"></stop><stop offset="70%" stop-color="#0f6b76" stop-opacity="1"></stop></linearGradient></defs><g transform="translate(540, 0)"><path d="M0 479C-29.1 467.5 -58.3 456.1 -90.1 453.1C-122 450.2 -156.6 455.8 -185.6 448.1C-214.6 440.4 -237.8 419.3 -275 411.6C-312.2 403.8 -363.3 409.4 -381.8 381.8C-400.4 354.3 -386.3 293.7 -373.3 249.5C-360.3 205.2 -348.4 177.2 -380.6 157.7C-412.9 138.1 -489.3 127.1 -513.9 102.2C-538.5 77.4 -511.3 38.7 -484 0L0 0Z" fill="#0a7885"></path><path d="M0 399.2C-24.3 389.6 -48.5 380 -75.1 377.6C-101.7 375.2 -130.5 379.8 -154.7 373.4C-178.8 367 -198.2 349.4 -229.2 343C-260.2 336.5 -302.8 341.1 -318.2 318.2C-333.6 295.3 -321.9 244.8 -311.1 207.9C-300.3 171 -290.3 147.7 -317.2 131.4C-344.1 115.1 -407.8 105.9 -428.3 85.2C-448.8 64.5 -426.1 32.2 -403.3 0L0 0Z" fill="#125e67"></path><path d="M0 319.3C-19.4 311.7 -38.8 304 -60.1 302.1C-81.3 300.1 -104.4 303.9 -123.7 298.7C-143 293.6 -158.5 279.6 -183.3 274.4C-208.1 269.2 -242.2 272.9 -254.6 254.6C-266.9 236.2 -257.6 195.8 -248.9 166.3C-240.2 136.8 -232.3 118.1 -253.8 105.1C-275.3 92.1 -326.2 84.7 -342.6 68.2C-359 51.6 -340.8 25.8 -322.7 0L0 0Z" fill="#14454b"></path><path d="M0 239.5C-14.6 233.8 -29.1 228 -45.1 226.6C-61 225.1 -78.3 227.9 -92.8 224C-107.3 220.2 -118.9 209.7 -137.5 205.8C-156.1 201.9 -181.7 204.7 -190.9 190.9C-200.2 177.2 -193.2 146.9 -186.7 124.7C-180.2 102.6 -174.2 88.6 -190.3 78.8C-206.4 69.1 -244.7 63.5 -257 51.1C-269.3 38.7 -255.6 19.3 -242 0L0 0Z" fill="#112e31"></path><path d="M0 159.7C-9.7 155.8 -19.4 152 -30 151C-40.7 150.1 -52.2 151.9 -61.9 149.4C-71.5 146.8 -79.3 139.8 -91.7 137.2C-104.1 134.6 -121.1 136.5 -127.3 127.3C-133.5 118.1 -128.8 97.9 -124.4 83.2C-120.1 68.4 -116.1 59.1 -126.9 52.6C-137.6 46 -163.1 42.4 -171.3 34.1C-179.5 25.8 -170.4 12.9 -161.3 0L0 0Z" fill="#0a1819"></path><path d="M0 79.8C-4.9 77.9 -9.7 76 -15 75.5C-20.3 75 -26.1 76 -30.9 74.7C-35.8 73.4 -39.6 69.9 -45.8 68.6C-52 67.3 -60.6 68.2 -63.6 63.6C-66.7 59.1 -64.4 49 -62.2 41.6C-60.1 34.2 -58.1 29.5 -63.4 26.3C-68.8 23 -81.6 21.2 -85.7 17C-89.8 12.9 -85.2 6.4 -80.7 0L0 0Z" fill="#000a0b"></path></g><g transform="translate(0, 960)"><path d="M0 -468C27.5 -450.4 54.9 -432.9 84.5 -424.7C114 -416.5 145.7 -417.6 166.1 -401C186.5 -384.3 195.5 -349.9 230 -344.2C264.5 -338.6 324.3 -361.8 344.4 -344.4C364.4 -326.9 344.6 -268.8 346.7 -231.7C348.8 -194.6 372.8 -178.5 376 -155.8C379.2 -133 361.6 -103.7 385.4 -76.7C409.3 -49.6 474.7 -24.8 540 0L0 0Z" fill="#0a7885"></path><path d="M0 -390C22.9 -375.4 45.8 -360.7 70.4 -353.9C95 -347.1 121.4 -348 138.4 -334.1C155.4 -320.3 162.9 -291.5 191.7 -286.9C220.4 -282.2 270.3 -301.5 287 -287C303.7 -272.4 287.2 -224 288.9 -193.1C290.7 -162.1 310.7 -148.7 313.3 -129.8C316 -110.9 301.3 -86.4 321.2 -63.9C341.1 -41.3 395.5 -20.7 450 0L0 0Z" fill="#125e67"></path><path d="M0 -312C18.3 -300.3 36.6 -288.6 56.3 -283.1C76 -277.6 97.1 -278.4 110.7 -267.3C124.3 -256.2 130.4 -233.2 153.3 -229.5C176.3 -225.7 216.2 -241.2 229.6 -229.6C242.9 -217.9 229.7 -179.2 231.1 -154.4C232.6 -129.7 248.6 -119 250.7 -103.8C252.8 -88.7 241.1 -69.2 257 -51.1C272.9 -33.1 316.4 -16.5 360 0L0 0Z" fill="#14454b"></path><path d="M0 -234C13.7 -225.2 27.5 -216.4 42.2 -212.3C57 -208.2 72.9 -208.8 83 -200.5C93.2 -192.2 97.8 -174.9 115 -172.1C132.2 -169.3 162.2 -180.9 172.2 -172.2C182.2 -163.5 172.3 -134.4 173.4 -115.8C174.4 -97.3 186.4 -89.2 188 -77.9C189.6 -66.5 180.8 -51.9 192.7 -38.3C204.7 -24.8 237.3 -12.4 270 0L0 0Z" fill="#112e31"></path><path d="M0 -156C9.2 -150.1 18.3 -144.3 28.2 -141.6C38 -138.8 48.6 -139.2 55.4 -133.7C62.2 -128.1 65.2 -116.6 76.7 -114.7C88.2 -112.9 108.1 -120.6 114.8 -114.8C121.5 -109 114.9 -89.6 115.6 -77.2C116.3 -64.9 124.3 -59.5 125.3 -51.9C126.4 -44.3 120.5 -34.6 128.5 -25.6C136.4 -16.5 158.2 -8.3 180 0L0 0Z" fill="#0a1819"></path><path d="M0 -78C4.6 -75.1 9.2 -72.1 14.1 -70.8C19 -69.4 24.3 -69.6 27.7 -66.8C31.1 -64.1 32.6 -58.3 38.3 -57.4C44.1 -56.4 54.1 -60.3 57.4 -57.4C60.7 -54.5 57.4 -44.8 57.8 -38.6C58.1 -32.4 62.1 -29.7 62.7 -26C63.2 -22.2 60.3 -17.3 64.2 -12.8C68.2 -8.3 79.1 -4.1 90 0L0 0Z" fill="#000a0b"></path></g></svg>